<mxfile host="app.diagrams.net" modified="2023-10-10T13:47:47.862Z" agent="Mozilla/5.0 (Windows NT 10.0; Win64; x64) AppleWebKit/537.36 (KHTML, like Gecko) Chrome/117.0.0.0 Safari/537.36" etag="bohWTkCdN53PbTSUgESa" version="22.0.4" type="github">
  <diagram name="Page-1" id="L87bj0hWsRMEn1FUHDgA">
    <mxGraphModel dx="2074" dy="1118" grid="1" gridSize="10" guides="1" tooltips="1" connect="1" arrows="1" fold="1" page="1" pageScale="1" pageWidth="850" pageHeight="1100" math="0" shadow="0">
      <root>
        <mxCell id="0" />
        <mxCell id="1" parent="0" />
        <mxCell id="Jpmoau5MGPRtq4S94u8K-3" style="edgeStyle=orthogonalEdgeStyle;rounded=0;orthogonalLoop=1;jettySize=auto;html=1;exitX=0.5;exitY=1;exitDx=0;exitDy=0;entryX=0.5;entryY=0;entryDx=0;entryDy=0;" edge="1" parent="1" source="Jpmoau5MGPRtq4S94u8K-1" target="Jpmoau5MGPRtq4S94u8K-2">
          <mxGeometry relative="1" as="geometry" />
        </mxCell>
        <mxCell id="Jpmoau5MGPRtq4S94u8K-1" value="START" style="ellipse;whiteSpace=wrap;html=1;" vertex="1" parent="1">
          <mxGeometry x="80" y="40" width="120" height="80" as="geometry" />
        </mxCell>
        <mxCell id="Jpmoau5MGPRtq4S94u8K-5" value="" style="edgeStyle=orthogonalEdgeStyle;rounded=0;orthogonalLoop=1;jettySize=auto;html=1;" edge="1" parent="1" source="Jpmoau5MGPRtq4S94u8K-2" target="Jpmoau5MGPRtq4S94u8K-4">
          <mxGeometry relative="1" as="geometry" />
        </mxCell>
        <mxCell id="Jpmoau5MGPRtq4S94u8K-2" value="1. Search employee info&lt;br&gt;2. Calculate salary&lt;br&gt;3. Exit" style="shape=parallelogram;perimeter=parallelogramPerimeter;whiteSpace=wrap;html=1;fixedSize=1;" vertex="1" parent="1">
          <mxGeometry x="60" y="160" width="160" height="80" as="geometry" />
        </mxCell>
        <mxCell id="Jpmoau5MGPRtq4S94u8K-7" value="" style="edgeStyle=orthogonalEdgeStyle;rounded=0;orthogonalLoop=1;jettySize=auto;html=1;" edge="1" parent="1" source="Jpmoau5MGPRtq4S94u8K-4" target="Jpmoau5MGPRtq4S94u8K-6">
          <mxGeometry relative="1" as="geometry" />
        </mxCell>
        <mxCell id="Jpmoau5MGPRtq4S94u8K-14" style="edgeStyle=orthogonalEdgeStyle;rounded=0;orthogonalLoop=1;jettySize=auto;html=1;exitX=1;exitY=0.5;exitDx=0;exitDy=0;entryX=0;entryY=0.5;entryDx=0;entryDy=0;" edge="1" parent="1" source="Jpmoau5MGPRtq4S94u8K-4" target="Jpmoau5MGPRtq4S94u8K-13">
          <mxGeometry relative="1" as="geometry" />
        </mxCell>
        <mxCell id="Jpmoau5MGPRtq4S94u8K-4" value="if choice == 1" style="rhombus;whiteSpace=wrap;html=1;" vertex="1" parent="1">
          <mxGeometry x="95" y="320" width="90" height="90" as="geometry" />
        </mxCell>
        <mxCell id="Jpmoau5MGPRtq4S94u8K-9" value="" style="edgeStyle=orthogonalEdgeStyle;rounded=0;orthogonalLoop=1;jettySize=auto;html=1;" edge="1" parent="1" source="Jpmoau5MGPRtq4S94u8K-6" target="Jpmoau5MGPRtq4S94u8K-8">
          <mxGeometry relative="1" as="geometry" />
        </mxCell>
        <mxCell id="Jpmoau5MGPRtq4S94u8K-22" style="edgeStyle=orthogonalEdgeStyle;rounded=0;orthogonalLoop=1;jettySize=auto;html=1;exitX=1;exitY=0.5;exitDx=0;exitDy=0;entryX=0;entryY=0.5;entryDx=0;entryDy=0;" edge="1" parent="1" source="Jpmoau5MGPRtq4S94u8K-6" target="Jpmoau5MGPRtq4S94u8K-20">
          <mxGeometry relative="1" as="geometry" />
        </mxCell>
        <mxCell id="Jpmoau5MGPRtq4S94u8K-6" value="if choice == 2" style="rhombus;whiteSpace=wrap;html=1;" vertex="1" parent="1">
          <mxGeometry x="95" y="480" width="90" height="90" as="geometry" />
        </mxCell>
        <mxCell id="Jpmoau5MGPRtq4S94u8K-11" value="" style="edgeStyle=orthogonalEdgeStyle;rounded=0;orthogonalLoop=1;jettySize=auto;html=1;" edge="1" parent="1" source="Jpmoau5MGPRtq4S94u8K-8" target="Jpmoau5MGPRtq4S94u8K-10">
          <mxGeometry relative="1" as="geometry" />
        </mxCell>
        <mxCell id="Jpmoau5MGPRtq4S94u8K-8" value="if choice == 3" style="rhombus;whiteSpace=wrap;html=1;" vertex="1" parent="1">
          <mxGeometry x="95" y="640" width="90" height="90" as="geometry" />
        </mxCell>
        <mxCell id="Jpmoau5MGPRtq4S94u8K-12" style="edgeStyle=orthogonalEdgeStyle;rounded=0;orthogonalLoop=1;jettySize=auto;html=1;exitX=0;exitY=0.5;exitDx=0;exitDy=0;" edge="1" parent="1" source="Jpmoau5MGPRtq4S94u8K-10" target="Jpmoau5MGPRtq4S94u8K-2">
          <mxGeometry relative="1" as="geometry">
            <Array as="points">
              <mxPoint x="40" y="863" />
              <mxPoint x="40" y="200" />
            </Array>
          </mxGeometry>
        </mxCell>
        <mxCell id="Jpmoau5MGPRtq4S94u8K-10" value="if choice == &lt;br&gt;other" style="rhombus;whiteSpace=wrap;html=1;" vertex="1" parent="1">
          <mxGeometry x="92.5" y="815" width="95" height="95" as="geometry" />
        </mxCell>
        <mxCell id="Jpmoau5MGPRtq4S94u8K-16" style="edgeStyle=orthogonalEdgeStyle;rounded=0;orthogonalLoop=1;jettySize=auto;html=1;exitX=1;exitY=0.5;exitDx=0;exitDy=0;entryX=0;entryY=0.5;entryDx=0;entryDy=0;" edge="1" parent="1" source="Jpmoau5MGPRtq4S94u8K-13" target="Jpmoau5MGPRtq4S94u8K-15">
          <mxGeometry relative="1" as="geometry" />
        </mxCell>
        <mxCell id="Jpmoau5MGPRtq4S94u8K-13" value="Search employee info &lt;br&gt;by emp ID" style="shape=parallelogram;perimeter=parallelogramPerimeter;whiteSpace=wrap;html=1;fixedSize=1;" vertex="1" parent="1">
          <mxGeometry x="240" y="327.5" width="150" height="75" as="geometry" />
        </mxCell>
        <mxCell id="Jpmoau5MGPRtq4S94u8K-15" value="find employee info and display" style="rounded=0;whiteSpace=wrap;html=1;" vertex="1" parent="1">
          <mxGeometry x="450" y="335" width="120" height="60" as="geometry" />
        </mxCell>
        <mxCell id="Jpmoau5MGPRtq4S94u8K-17" style="edgeStyle=orthogonalEdgeStyle;rounded=0;orthogonalLoop=1;jettySize=auto;html=1;exitX=1;exitY=0.5;exitDx=0;exitDy=0;entryX=0.994;entryY=0.388;entryDx=0;entryDy=0;entryPerimeter=0;" edge="1" parent="1" source="Jpmoau5MGPRtq4S94u8K-15" target="Jpmoau5MGPRtq4S94u8K-2">
          <mxGeometry relative="1" as="geometry" />
        </mxCell>
        <mxCell id="Jpmoau5MGPRtq4S94u8K-24" style="edgeStyle=orthogonalEdgeStyle;rounded=0;orthogonalLoop=1;jettySize=auto;html=1;exitX=1;exitY=0.5;exitDx=0;exitDy=0;entryX=0;entryY=0.5;entryDx=0;entryDy=0;" edge="1" parent="1" source="Jpmoau5MGPRtq4S94u8K-20" target="Jpmoau5MGPRtq4S94u8K-23">
          <mxGeometry relative="1" as="geometry" />
        </mxCell>
        <mxCell id="Jpmoau5MGPRtq4S94u8K-20" value="Part time or full time employee?" style="shape=parallelogram;perimeter=parallelogramPerimeter;whiteSpace=wrap;html=1;fixedSize=1;" vertex="1" parent="1">
          <mxGeometry x="240" y="491.25" width="140" height="67.5" as="geometry" />
        </mxCell>
        <mxCell id="Jpmoau5MGPRtq4S94u8K-23" value="Num hours worked?" style="shape=parallelogram;perimeter=parallelogramPerimeter;whiteSpace=wrap;html=1;fixedSize=1;" vertex="1" parent="1">
          <mxGeometry x="430" y="491.25" width="130" height="68.75" as="geometry" />
        </mxCell>
      </root>
    </mxGraphModel>
  </diagram>
</mxfile>
